<mxfile>
    <diagram id="spXmHHvPbP27Zg3x4fzR" name="Página-1">
        <mxGraphModel dx="1597" dy="1143" grid="1" gridSize="10" guides="1" tooltips="1" connect="1" arrows="1" fold="1" page="1" pageScale="1" pageWidth="750" pageHeight="300" math="0" shadow="0">
            <root>
                <mxCell id="0"/>
                <mxCell id="1" parent="0"/>
                <mxCell id="2" value="" style="fontStyle=1;align=center;verticalAlign=top;childLayout=stackLayout;horizontal=1;horizontalStack=0;resizeParent=1;resizeParentMax=0;resizeLast=0;marginBottom=0;" parent="1" vertex="1">
                    <mxGeometry x="550" y="205" width="140" height="60" as="geometry"/>
                </mxCell>
                <mxCell id="3" value="Interfaz&lt;br&gt;&lt;br&gt;Perfil de usuario" style="html=1;align=left;spacingLeft=4;verticalAlign=top;strokeColor=none;fillColor=none;" parent="2" vertex="1">
                    <mxGeometry width="140" height="60" as="geometry"/>
                </mxCell>
                <mxCell id="4" value="" style="shape=module;jettyWidth=10;jettyHeight=4;" parent="3" vertex="1">
                    <mxGeometry x="1" width="16" height="20" relative="1" as="geometry">
                        <mxPoint x="-25" y="9" as="offset"/>
                    </mxGeometry>
                </mxCell>
                <mxCell id="11" value="" style="fontStyle=1;align=center;verticalAlign=top;childLayout=stackLayout;horizontal=1;horizontalStack=0;resizeParent=1;resizeParentMax=0;resizeLast=0;marginBottom=0;" parent="1" vertex="1">
                    <mxGeometry x="550" y="55.5" width="140" height="60" as="geometry"/>
                </mxCell>
                <mxCell id="12" value="Componente&lt;br&gt;&lt;br&gt;Iniciar sesión" style="html=1;align=left;spacingLeft=4;verticalAlign=top;strokeColor=none;fillColor=none;" parent="11" vertex="1">
                    <mxGeometry width="140" height="60" as="geometry"/>
                </mxCell>
                <mxCell id="13" value="" style="shape=module;jettyWidth=10;jettyHeight=4;" parent="12" vertex="1">
                    <mxGeometry x="1" width="16" height="20" relative="1" as="geometry">
                        <mxPoint x="-25" y="9" as="offset"/>
                    </mxGeometry>
                </mxCell>
                <mxCell id="19" value="" style="fontStyle=1;align=center;verticalAlign=top;childLayout=stackLayout;horizontal=1;horizontalStack=0;resizeParent=1;resizeParentMax=0;resizeLast=0;marginBottom=0;" parent="1" vertex="1">
                    <mxGeometry x="50" y="55.5" width="140" height="60" as="geometry"/>
                </mxCell>
                <mxCell id="20" value="Componente&lt;br&gt;&lt;br&gt;Base de datos" style="html=1;align=left;spacingLeft=4;verticalAlign=top;strokeColor=none;fillColor=none;" parent="19" vertex="1">
                    <mxGeometry width="140" height="60" as="geometry"/>
                </mxCell>
                <mxCell id="21" value="" style="shape=module;jettyWidth=10;jettyHeight=4;" parent="20" vertex="1">
                    <mxGeometry x="1" width="16" height="20" relative="1" as="geometry">
                        <mxPoint x="-25" y="9" as="offset"/>
                    </mxGeometry>
                </mxCell>
                <mxCell id="40" value="" style="fontStyle=1;align=center;verticalAlign=top;childLayout=stackLayout;horizontal=1;horizontalStack=0;resizeParent=1;resizeParentMax=0;resizeLast=0;marginBottom=0;" vertex="1" parent="1">
                    <mxGeometry x="300" y="35" width="140" height="101" as="geometry"/>
                </mxCell>
                <mxCell id="41" value="Interfaz&lt;br&gt;&lt;br&gt;Datos" style="html=1;align=left;spacingLeft=4;verticalAlign=top;strokeColor=none;fillColor=none;" vertex="1" parent="40">
                    <mxGeometry width="140" height="60" as="geometry"/>
                </mxCell>
                <mxCell id="42" value="" style="shape=module;jettyWidth=10;jettyHeight=4;" vertex="1" parent="41">
                    <mxGeometry x="1" width="16" height="20" relative="1" as="geometry">
                        <mxPoint x="-25" y="9" as="offset"/>
                    </mxGeometry>
                </mxCell>
                <mxCell id="43" value="" style="line;strokeWidth=1;fillColor=none;align=left;verticalAlign=middle;spacingTop=-1;spacingLeft=3;spacingRight=3;rotatable=0;labelPosition=right;points=[];portConstraint=eastwest;" vertex="1" parent="40">
                    <mxGeometry y="60" width="140" height="8" as="geometry"/>
                </mxCell>
                <mxCell id="46" value="" style="line;strokeWidth=1;fillColor=none;align=left;verticalAlign=middle;spacingTop=-1;spacingLeft=3;spacingRight=3;rotatable=0;labelPosition=right;points=[];portConstraint=eastwest;" vertex="1" parent="40">
                    <mxGeometry y="68" width="140" height="8" as="geometry"/>
                </mxCell>
                <mxCell id="47" value="VerificarDatos()" style="html=1;align=center;spacingLeft=4;verticalAlign=top;strokeColor=none;fillColor=none;" vertex="1" parent="40">
                    <mxGeometry y="76" width="140" height="25" as="geometry"/>
                </mxCell>
                <mxCell id="53" value="" style="html=1;verticalAlign=bottom;labelBackgroundColor=none;endArrow=block;endFill=1;dashed=1;exitX=1;exitY=0.5;exitDx=0;exitDy=0;entryX=-0.019;entryY=0.853;entryDx=0;entryDy=0;entryPerimeter=0;" edge="1" parent="1" source="20" target="41">
                    <mxGeometry width="160" relative="1" as="geometry">
                        <mxPoint x="260" y="155.5" as="sourcePoint"/>
                        <mxPoint x="420" y="155.5" as="targetPoint"/>
                    </mxGeometry>
                </mxCell>
                <mxCell id="54" value="" style="html=1;verticalAlign=bottom;labelBackgroundColor=none;endArrow=open;endFill=0;dashed=1;entryX=1.011;entryY=0.86;entryDx=0;entryDy=0;entryPerimeter=0;exitX=0;exitY=0.5;exitDx=0;exitDy=0;" edge="1" parent="1" source="12" target="41">
                    <mxGeometry width="160" relative="1" as="geometry">
                        <mxPoint x="540" y="185" as="sourcePoint"/>
                        <mxPoint x="700" y="185" as="targetPoint"/>
                    </mxGeometry>
                </mxCell>
                <mxCell id="55" value="" style="html=1;verticalAlign=bottom;labelBackgroundColor=none;endArrow=open;endFill=0;dashed=1;entryX=0.5;entryY=1;entryDx=0;entryDy=0;exitX=0.5;exitY=0;exitDx=0;exitDy=0;" edge="1" parent="1" source="3" target="12">
                    <mxGeometry width="160" relative="1" as="geometry">
                        <mxPoint x="350" y="205" as="sourcePoint"/>
                        <mxPoint x="510" y="205" as="targetPoint"/>
                    </mxGeometry>
                </mxCell>
            </root>
        </mxGraphModel>
    </diagram>
</mxfile>